<?xml version="1.0" encoding="utf-8" ?>	<!-- Generator: Assembly 2.4 - http://assemblyapp.co -->	<svg version="1.1" xmlns="http://www.w3.org/2000/svg" xmlns:xlink="http://www.w3.org/1999/xlink" width="4096.00" height="4096.00" viewBox="0 0 4096.0 4096.0">		<g id="document" transform="scale(13.653333333333334 13.653333333333334) translate(150.0 150.0)">			<path d="M-86.9083,-70.0575 C-74.5248,-62.9079 -58.7123,-67.1449 -51.5627,-79.5284 C-44.413,-91.9119 -48.65,-107.724 -61.0335,-114.874 C-73.417,-122.024 -89.2295,-117.787 -96.3791,-105.403 C-103.529,-93.0197 -99.2918,-77.2071 -86.9083,-70.0575 Z " fill="#911eb4" fill-opacity="1.00" />			<path d="M-86.9083,22.4082 C-74.5248,29.5578 -58.7123,25.3209 -51.5627,12.9374 C-44.413,0.553902 -48.65,-15.2586 -61.0335,-22.4082 C-73.417,-29.5578 -89.2295,-25.3209 -96.3791,-12.9374 C-103.529,-0.553902 -99.2918,15.2586 -86.9083,22.4082 Z " fill="#911eb4" fill-opacity="1.00" />			<path d="M-86.9083,114.874 C-74.5248,122.024 -58.7123,117.787 -51.5627,105.403 C-44.413,93.0197 -48.65,77.2071 -61.0335,70.0575 C-73.417,62.9079 -89.2295,67.1449 -96.3791,79.5284 C-103.529,91.9119 -99.2918,107.724 -86.9083,114.874 Z " fill="#911eb4" fill-opacity="1.00" />			<path d="M-37.8576,1.38206 C-37.8576,15.7451 -29.0783,18.8118 -14.7153,18.8118 L63.4248,18.8118 C77.7878,18.8118 82.3288,15.7451 82.3288,1.38206 C82.3288,-12.981 77.7878,-18.8118 63.4248,-18.8118 L-14.7153,-18.8118 C-29.0783,-18.8118 -37.8576,-12.981 -37.8576,1.38206 Z " fill="#f032e6" fill-opacity="1.00" />			<path d="M-37.8576,93.8478 C-37.8576,108.211 -29.0783,111.278 -14.7153,111.278 L63.4248,111.278 C77.7878,111.278 82.3288,108.211 82.3288,93.8478 C82.3288,79.4848 77.7878,73.6539 63.4248,73.6539 L-14.7153,73.6539 C-29.0783,73.6539 -37.8576,79.4848 -37.8576,93.8478 Z " fill="#f032e6" fill-opacity="1.00" />			<path d="M-37.8576,-91.0837 C-37.8576,-76.7207 -29.0783,-73.6539 -14.7153,-73.6539 L63.4248,-73.6539 C77.7878,-73.6539 82.3288,-76.7207 82.3288,-91.0837 C82.3288,-105.447 77.7878,-111.278 63.4248,-111.278 L-14.7153,-111.278 C-29.0783,-111.278 -37.8576,-105.447 -37.8576,-91.0837 Z " fill="#f032e6" fill-opacity="1.00" />		</g>	</svg>