<?xml version="1.0" encoding="UTF-8"?>
<svg id="Layer_2" data-name="Layer 2" xmlns="http://www.w3.org/2000/svg" viewBox="0 0 91.34 55.01">
  <defs>
    <style>
      .cls-1 {
        fill: #000;
      }
    </style>
  </defs>
  <g id="Page_6" data-name="Page 6">
    <g>
      <path class="cls-1" d="M45.75,40.45c3.18,0,11.24-3.64,10.27-13.21-.9-8.98-8.29-12.22-10.27-13.21-1.92,1.06-9.37,4.23-10.27,13.21-.96,9.57,7.1,13.21,10.27,13.21Z"/>
      <line class="cls-1" x1="74.82" y1="30.55" x2="87.19" y2="30.36"/>
      <path class="cls-1" d="M74.97,30.55c-2.32,3.71-7.18,12.13-16.28,17.7,6.33-4.28,9.52-16.94,9.52-16.94-.92-1.65-3.64-5.39-7.14-7.14,.97,9.73-4.14,21.55-15.32,21.87-11.19-.33-16.45-12.14-15.48-21.87-3.5,1.75-6.22,5.49-7.14,7.14,0,0,3.19,12.66,9.52,16.94-9.1-5.57-13.96-13.99-16.28-17.7h.1l-12.37-.19h0c16.47,24.82,34.71,24.65,41.65,24.65,6.94,0,25.02,.17,41.5-24.65"/>
      <path class="cls-1" d="M45.59,7.04c-11.54,5.42-24.05,16.47-28.36,21.03H0c4.76-1.33,5.9-2.57,6-2.57,.08,0,11.44-10.81,18.08-15.41,5.75-3.98,12.32-7.95,21.51-10.1,8.62,1.66,15.92,6.12,21.67,10.1,6.65,4.6,18.01,15.41,18.08,15.41,.1,0,1.24,1.24,6,2.57h-17.23c-4.31-4.57-16.98-15.62-28.52-21.03Z"/>
    </g>
  </g>
</svg>