<?xml version="1.0" encoding="UTF-8"?>
<svg id="Layer_2" data-name="Layer 2" xmlns="http://www.w3.org/2000/svg" viewBox="0 0 83.22 71.55">
  <defs>
    <style>
      .cls-1 {
        fill: #7f87c2;
      }

      .cls-2 {
        fill: none;
        stroke: #7f87c2;
        stroke-miterlimit: 10;
        stroke-width: 2px;
      }
    </style>
  </defs>
  <g id="Layer_2-2" data-name="Layer 2">
    <g id="Layer_3" data-name="Layer 3">
      <path class="cls-2" d="m2.95,27.95c7.74-5.09,20.38-4.57,20.1-14.3"/>
      <path class="cls-1" d="m6.31,32.81c1.5.39,3.12-2.18,2.65-3.22s-1.49-2.18-2.55-2.6c-2-.8-3.03-.31-3.97-.01-.84.26-2.16,1.49-2.4,2.29-.32,1.08,1.29,1.11,1.07,4.12-.03.38-.32-.47-.47-.21-.35.62-.11,3.04.61,3.26.63.19.82-1.32,1.29-1.43s2.51,2.76,3.22,2.11c.81-.74-.54-3.24-1.33-3.9-.47-.39-2.4-1.58-.97-2.97.64-.62,1.79,1.25,2.15,1.86.2.34.3.62.68.72l.02-.02Z"/>
      <path class="cls-2" d="m14.48,22.67c.47-2.09-.3-3.59-.04-4.64.63-2.61,2.38-6.21,5.49-8.89,4.55-3.93,11.63-6.26,15.87-7.28,2.21-.53,7.14-1.02,9.4-.81,2.72.26,4.74.62,6.21,1.19.8.31,1.81,1.35,2.64,1.57.75.2,1.84-.06,2.6.13,4.86,1.22,10.1,7.34,17.91,10.55,1.45.6,2.32,1.67,2.26,2.51-.08,1.08-1.29,2.99-1.91,3.87-2.43,3.4-6.11,6.6-8.55,9.7-1.11,1.4-2.17,6.38-5.87,6.26-1.39-.05-3.49-3.31-3.91-4.68-.91-2.94-1.06-7.62-.94-11.87.09-3.03.51-6.34.13-11.7"/>
      <path class="cls-2" d="m1.5,34.28c0,2.34-.94,7.92.17,10.13.74,1.48,2.45,3.68,4,3.7.44,0,2.26.04,2.34-.64.13-1.06-3.4-1.9-4.09-3.06-.41-.7-.77-2.94,0-3.28,1.68-.73,5.46,3.25,6.94,4.34,1.71,1.27,4.9,3.4,6.81,3.53,7.36.51,14.04-3.06,14.55-1.66.47,1.28-2.47,2.77-3.62,1.96"/>
      <path class="cls-2" d="m8.01,47.48c.98.72,2.99,1.07,3.91,1.57.84.45,2.64,1.3,3.53,1.62,1.47.52,4.23.26,5.79.34,1.94.09,5.54,1.33,7.15,2.43,1.98,1.35,4.89,3.19,6.81,6.72"/>
      <path class="cls-2" d="m73.98,41.4c1.07.29,1.75.77,1.98,1.42,1.13,3.26-9.38,9.85-23.46,14.72s-26.41,6.18-27.54,2.92c-.25-.72.07-1.6.86-2.59"/>
      <path class="cls-2" d="m79.02,51.12c1.13,3.26-9.38,9.85-23.46,14.72s-26.41,6.18-27.54,2.92"/>
      <line class="cls-2" x1="24.96" y1="60.46" x2="28.02" y2="68.76"/>
      <line class="cls-2" x1="75.96" y1="42.82" x2="79.02" y2="51.12"/>
      <path class="cls-2" d="m69.37,27.31c1.11,5.19,3.57,12.17,6.21,16.94"/>
      <path class="cls-2" d="m19.41,51.05c1.7.85,7.49,6.89,9.02,11.15"/>
      <circle class="cls-1" cx="54.82" cy="61.33" r="2.1"/>
      <path class="cls-1" d="m38.9,66.83c.78.14,3.07.56,3.07.56,1.03,0,1.87-.95,1.87-2.1s-.84-2.1-1.87-2.1c-.52,0-.98.23-1.32.62l-1.75,3.04s0-.01,0-.01Z"/>
      <path class="cls-1" d="m70.6,55.3l-1.98,2.42c-.78.67-2.03.5-2.78-.4s-.73-2.15.06-2.82c.4-.33.9-.46,1.41-.38l3.3,1.18Z"/>
      <g>
        <path class="cls-1" d="m28.76,64.18c.19-.15.39-.24.6-.24.73,0,1.32.95,1.32,2.1s-.59,2.1-1.32,2.1"/>
        <polyline class="cls-1" points="29.38 63.95 22 66.68 29.38 68.16"/>
      </g>
      <g>
        <path class="cls-1" d="m76,47.93c-.22-.08-.45-.08-.66,0-.67.26-.88,1.35-.45,2.44s1.32,1.75,1.99,1.48"/>
        <polyline class="cls-1" points="75.36 47.93 83.22 47.78 76.88 51.85"/>
      </g>
    </g>
  </g>
</svg>